HIERARCHY
ROOT hip
{
	OFFSET 0.000000 0.000000 0.000000 
	CHANNELS 6 Xposition Yposition Zposition Xrotation Zrotation Yrotation
	JOINT abdomen
	{
		OFFSET 0.000000 3.402643 0.000000 
		CHANNELS 3 Xrotation Zrotation Yrotation
		JOINT chest
		{
			OFFSET 0.000000 8.438565 -0.680529 
			CHANNELS 3 Xrotation Zrotation Yrotation
			JOINT neck
			{
				OFFSET 0.000000 10.207942 -0.272212 
				CHANNELS 3 Xrotation Zrotation Yrotation
				JOINT head
				{
					OFFSET 0.000000 3.130431 0.000000 
					CHANNELS 3 Xrotation Zrotation Yrotation
					End Site
					{
						OFFSET 0.000000 3.130435 0.000000 
					}
				}
			}
			JOINT lCollar
			{
				OFFSET 3.470700 6.669187 -0.816635 
				CHANNELS 3 Yrotation Zrotation Xrotation
				JOINT lShldr
				{
					OFFSET 3.198488 0.000000 0.000000 
					CHANNELS 3 Zrotation Yrotation Xrotation
					JOINT lForeArm
					{
						OFFSET 10.139888 0.000000 0.000000 
						CHANNELS 3 Yrotation Zrotation Xrotation
						JOINT lHand
						{
							OFFSET 8.370511 0.000000 0.000000 
							CHANNELS 3 Zrotation Yrotation Xrotation
							End Site
							{
								OFFSET 4.083176 0.000000 0.000000 
							}
						}
					}
				}
			}
			JOINT rCollar
			{
				OFFSET -3.470700 6.669187 -0.816635 
				CHANNELS 3 Yrotation Zrotation Xrotation
				JOINT rShldr
				{
					OFFSET -3.198488 0.000000 0.000000 
					CHANNELS 3 Zrotation Yrotation Xrotation
					JOINT rForeArm
					{
						OFFSET -10.139888 0.000000 0.000000 
						CHANNELS 3 Yrotation Zrotation Xrotation
						JOINT rHand
						{
							OFFSET -8.370511 0.000000 0.000000 
							CHANNELS 3 Zrotation Yrotation Xrotation
							End Site
							{
								OFFSET -4.083176 0.000000 0.000000 
							}
						}
					}
				}
			}
		}
	}
	JOINT lThigh
	{
		OFFSET 5.308129 -1.633274 1.361059 
		CHANNELS 3 Xrotation Zrotation Yrotation
		JOINT lShin
		{
			OFFSET -2.041588 -20.007561 0.000000 
			CHANNELS 3 Xrotation Zrotation Yrotation
			JOINT lFoot
			{
				OFFSET 0.000000 -19.190928 -1.224953 
				CHANNELS 3 Xrotation Yrotation Zrotation
				End Site
				{
					OFFSET 0.000000 -2.449906 4.627600 
				}
			}
		}
	}
	JOINT rThigh
	{
		OFFSET -5.308129 -1.633274 1.361059 
		CHANNELS 3 Xrotation Zrotation Yrotation
		JOINT rShin
		{
			OFFSET 2.041588 -20.007561 0.000000 
			CHANNELS 3 Xrotation Zrotation Yrotation
			JOINT rFoot
			{
				OFFSET 0.000000 -19.190928 -1.224953 
				CHANNELS 3 Xrotation Yrotation Zrotation
				End Site
				{
					OFFSET 0.000000 -2.449906 4.627600 
				}
			}
		}
	}
}
MOTION
Frames: 18
Frame Time: 0.016667
0.740152 52.909939 49.140755 10.451274 -6.617885 8.009790 21.637365 1.370744 -0.823427 -17.910347 -0.260187 -0.120989 0.000000 0.000000 0.000000 -13.104504 8.182728 -5.558552 1.993417 -2.013218 -0.007815 -79.758949 0.851461 -14.357040 -1.751656 2.643238 59.021454 8.601453 5.149627 2.912341 -2.003164 1.994041 -0.018257 72.888405 -20.561758 -25.848059 5.673086 25.199091 126.444107 -37.667679 1.668951 1.954003 -14.438313 19.262432 -4.880603 79.092621 -0.643244 -4.088575 -2.998042 0.001974 -0.020290 -33.336906 0.459122 -7.418964 41.630947 2.978324 2.755116 -0.507812 0.000592 0.000228 
0.681746 53.149521 50.559357 10.340199 -6.937397 7.096709 21.636293 1.252736 -0.313593 -17.832638 -0.464823 0.139758 0.000000 0.000000 0.000000 -12.018836 8.503700 -6.011136 1.993417 -2.013218 -0.007815 -79.083168 2.364656 -15.276951 -1.730597 2.634044 58.627934 8.601453 5.149627 2.912341 -2.003164 1.994041 -0.018257 72.580711 -19.467543 -24.127188 5.726146 25.164257 126.199509 -37.667679 1.668951 1.954003 -18.703983 19.632854 -5.032763 84.030548 -0.292060 -4.091189 -2.968746 0.012267 -0.026626 -31.108866 1.591387 -7.176529 40.362980 3.069720 2.685738 -0.526379 0.033293 0.002336 
0.641491 53.391533 51.994953 10.297086 -7.207507 5.929850 21.693571 1.088897 0.130522 -17.628729 -0.800409 0.381265 0.000000 0.000000 0.000000 -11.882143 7.561031 -5.588846 1.993417 -2.013218 -0.007815 -78.516975 4.077316 -17.203001 -1.719701 2.634171 58.431320 8.601453 5.149627 2.912341 -2.003164 1.994041 -0.018257 72.372871 -17.862904 -22.486406 5.697248 25.180082 126.302475 -37.667679 1.668951 1.954003 -23.079742 19.956638 -4.849175 88.272926 -0.009986 -4.140117 -2.978182 0.041628 0.017033 -28.824764 2.704334 -6.735894 39.066532 3.128467 2.611488 -0.487920 0.017548 0.006739 
0.616743 53.571621 53.408157 10.054992 -7.386086 4.875351 21.516180 0.854009 0.610211 -17.943144 -1.142766 0.633622 0.000000 0.000000 0.000000 -12.182817 7.734195 -5.862764 1.993417 -2.013218 -0.007815 -77.807381 6.031250 -19.024849 -1.686611 2.613290 57.928501 8.601453 5.149627 2.912341 -2.003164 1.994041 -0.018257 72.110428 -16.574089 -20.857897 5.709394 25.161226 126.239449 -37.667679 1.668951 1.954003 -27.403051 19.936087 -4.816240 91.864006 0.233916 -4.095236 -2.968609 0.030447 0.001907 -26.341421 3.592851 -6.336980 37.917706 3.157800 2.557049 -0.496775 0.036764 0.003661 
0.587996 53.641632 54.815434 10.144073 -7.816890 3.654505 21.408541 0.818272 1.033801 -17.954071 -1.309925 0.834460 0.000000 0.000000 0.000000 -11.635428 7.548589 -5.435615 1.993417 -2.013218 -0.007815 -77.337898 8.024127 -21.627956 -1.683454 2.605117 57.771626 8.601453 5.149627 2.912341 -2.003164 1.994041 -0.018257 71.809204 -15.455594 -18.882900 5.762183 25.135752 125.994003 -37.667679 1.668951 1.954003 -32.307255 20.338062 -4.648686 94.837715 0.447974 -4.099743 -2.978514 0.002430 0.000994 -24.413410 4.667524 -5.853466 36.756866 3.230080 2.476316 -0.476483 0.051586 -0.011577 
0.531670 53.761288 56.300945 9.795813 -8.094748 2.697870 21.427288 0.663622 1.471461 -17.984772 -1.495471 1.061408 0.000000 0.000000 0.000000 -11.677553 6.494800 -5.488766 1.993417 -2.013218 -0.007815 -76.726318 9.994596 -24.107924 -1.641194 2.586223 56.945915 8.601453 5.149627 2.912341 -2.003164 1.994041 -0.018257 71.646957 -13.978757 -17.376734 5.875638 25.042320 125.401100 -37.667679 1.668951 1.954003 -36.655529 20.398125 -4.508169 96.776718 0.603995 -4.110678 -2.997899 0.027826 0.011391 -21.623379 5.564009 -5.091962 35.388134 3.294321 2.425654 -0.497953 0.012430 -0.005687 
0.503191 53.848701 57.824360 9.631220 -8.223913 1.645523 21.260527 0.473253 1.932257 -18.132538 -1.624161 1.312829 0.000000 0.000000 0.000000 -10.608674 5.644679 -5.234800 1.993417 -2.013218 -0.007815 -76.200737 12.333106 -27.178862 -1.574887 2.536914 55.667553 8.601453 5.149627 2.912341 -2.003164 1.994041 -0.018257 71.522461 -12.929681 -16.524473 5.890484 25.044180 125.351486 -37.667679 1.668951 1.954003 -40.937759 20.093653 -4.283349 97.744225 0.662499 -4.058458 -3.007687 0.025676 0.010514 -19.149538 6.200427 -4.357708 34.041447 3.337984 2.321096 -0.506354 0.035947 0.013812 
0.470759 53.865566 59.381916 9.757880 -8.548284 0.399776 21.054691 0.036455 2.445680 -18.109747 -2.218484 1.623582 0.000000 0.000000 0.000000 -10.655108 6.018255 -5.700278 1.993417 -2.013218 -0.007815 -75.211868 14.607489 -30.599272 -1.499112 2.487314 54.095726 8.601453 5.149627 2.912341 -2.003164 1.994041 -0.018257 71.673454 -11.964272 -14.992532 6.154691 24.835493 123.982193 -37.667679 1.668951 1.954003 -45.818188 19.979633 -4.182887 97.998108 0.662591 -4.067023 -2.997950 0.022502 0.009212 -16.974720 7.056581 -3.529200 32.908493 3.392033 2.244220 -0.496023 0.041932 0.016108 
0.443095 53.772350 60.928673 9.890543 -8.708568 -0.682446 20.693779 -0.356288 2.863404 -18.330727 -2.642180 1.880841 0.000000 0.000000 0.000000 -10.563523 6.346580 -5.701686 1.993417 -2.013218 -0.007815 -74.441368 16.925444 -35.509693 -1.363795 2.392186 51.336639 8.601453 5.149627 2.912341 -2.003164 1.994041 -0.018257 71.797234 -11.452860 -13.667767 6.379703 24.659222 122.796089 -37.667679 1.668951 1.954003 -50.452385 19.401871 -4.066395 97.470474 0.652763 -4.068818 -2.988248 0.009687 0.014513 -14.842083 7.567078 -2.708052 31.845186 3.416165 2.192845 -0.507012 0.026644 0.010237 
0.408825 53.707325 62.555691 9.865051 -8.863281 -2.034091 20.548498 -0.704115 3.359018 -18.316278 -2.957693 2.169676 0.000000 0.000000 0.000000 -10.224203 6.574555 -5.635101 1.993417 -2.013218 -0.007815 -73.942955 19.023888 -41.048382 -1.230294 2.274985 48.295658 8.601453 5.149627 2.912341 -2.003164 1.994041 -0.018257 71.862083 -10.682855 -12.535730 6.616076 24.480556 121.591316 -37.667679 1.668951 1.954003 -54.564037 19.060774 -3.864953 96.007492 0.506230 -4.131863 -2.987857 0.047045 0.019254 -12.352327 8.114138 -1.528569 30.600658 3.484164 2.120270 -0.506813 0.029769 0.011438 
0.388866 53.586864 64.242744 10.109655 -8.770135 -3.306436 20.239899 -1.310286 3.882064 -18.286261 -3.449813 2.515812 0.000000 0.000000 0.000000 -10.784877 6.121261 -5.977708 1.993417 -2.013218 -0.007815 -72.807266 21.274109 -46.276138 -1.135482 2.212914 46.295723 8.601453 5.149627 2.912341 -2.003164 1.994041 -0.018257 72.169052 -10.044699 -11.716775 6.799160 24.305700 120.589775 -37.667679 1.668951 1.954003 -58.564953 18.425329 -3.472792 93.648491 0.331150 -4.125581 -2.978456 0.016661 0.017366 -9.866570 8.197950 -0.858470 29.062380 3.504495 2.081252 -0.497914 0.010734 0.004123 
0.348007 53.529800 65.975792 10.202045 -8.892683 -4.338155 19.931808 -1.771941 4.415880 -18.275095 -3.848953 2.822392 0.000000 0.000000 0.000000 -10.829737 6.830469 -6.507296 1.993417 -2.013218 -0.007815 -71.741348 23.582338 -51.465706 -1.030917 2.109661 43.777084 8.601453 5.149627 2.912341 -2.003164 1.994041 -0.018257 72.276146 -9.947990 -10.899792 6.979264 24.136171 119.579468 -37.667679 1.668951 1.954003 -62.099808 17.900694 -3.395098 90.313965 0.080605 -4.124204 -2.978417 0.026278 0.000204 -7.176899 8.378008 0.274219 27.312124 3.582503 1.952930 -0.487981 0.012523 0.015271 
0.327291 53.437126 67.763481 10.039188 -9.079969 -5.478786 19.770992 -2.196540 4.991777 -18.196083 -4.240552 3.149966 0.000000 0.000000 0.000000 -10.835360 7.857250 -6.781306 1.993417 -2.013218 -0.007815 -70.830650 25.468706 -57.694855 -0.870733 1.930776 39.839478 8.601453 5.149627 2.912341 -2.003164 1.994041 -0.018257 72.283401 -9.828254 -9.793855 7.202420 23.932356 118.362152 -37.667679 1.668951 1.954003 -64.724396 17.636271 -3.279154 86.070389 -0.194828 -4.112992 -2.978493 0.013911 -0.004856 -3.942537 8.383015 0.975152 25.332216 3.647003 1.832948 -0.526392 0.029606 0.011381 
0.294519 53.379520 69.606201 9.682502 -9.417184 -6.277661 19.544939 -2.751941 5.566216 -18.133718 -4.854994 3.510802 0.000000 0.000000 0.000000 -10.897057 9.304863 -7.474903 1.993417 -2.013218 -0.007815 -69.389114 27.362751 -62.520321 -0.744851 1.780264 36.657509 8.601453 5.149627 2.912341 -2.003164 1.994041 -0.018257 72.466736 -10.507354 -9.636456 7.329860 23.819815 117.628578 -37.667679 1.668951 1.954003 -66.629402 17.382658 -3.389483 80.859756 -0.565308 -4.113764 -2.988126 0.032006 0.002550 -0.194935 8.395545 1.226693 22.958599 3.725539 1.713723 -0.486983 0.043647 -0.014622 
0.274934 53.176769 71.489677 9.127087 -9.750458 -6.969359 19.502930 -3.130198 6.215787 -17.759186 -5.135153 3.858357 0.000000 0.000000 0.000000 -11.339422 10.355073 -8.519180 1.993417 -2.013218 -0.007815 -67.940216 28.932760 -67.088142 -0.641290 1.660452 33.829391 8.601453 5.149627 2.912341 -2.003164 1.994041 -0.018257 72.210304 -11.380775 -9.147462 7.473422 23.676067 116.825073 -37.667679 1.668951 1.954003 -67.482719 17.176050 -3.284954 74.956490 -0.974208 -4.016746 -2.978494 0.005085 0.012629 3.729842 8.250175 1.274216 20.871696 3.764752 1.569066 -0.515454 0.050708 -0.001436 
0.226363 52.957424 73.438705 8.359376 -10.340611 -7.625926 19.334610 -3.511400 6.952417 -17.580027 -5.382495 4.251004 0.000000 0.000000 0.000000 -11.481511 12.382145 -9.474850 1.993417 -2.013218 -0.007815 -66.386299 31.041264 -70.135338 -0.660598 1.695277 34.475094 8.601453 5.149627 2.912341 -2.003164 1.994041 -0.018257 71.885544 -12.861267 -8.758501 7.604760 23.538450 116.038673 -37.667679 1.668951 1.954003 -67.346077 17.332375 -3.335337 68.133232 -1.432039 -3.833547 -2.978506 0.003094 0.011814 7.621953 8.354064 1.077928 19.381929 3.827566 1.402034 -0.506363 0.039322 0.004647 
0.196430 52.804585 75.484055 7.586697 -10.814976 -7.935764 19.202343 -3.726444 7.530974 -17.227604 -5.411493 4.546019 0.000000 0.000000 0.000000 -11.003972 13.986863 -10.550287 1.993417 -2.013218 -0.007815 -65.311188 33.449921 -72.373886 -0.902652 1.975403 40.818348 8.601453 5.149627 2.912341 -2.003164 1.994041 -0.018257 71.213120 -14.005556 -7.793431 7.888563 23.246872 114.372070 -37.667679 1.668951 1.954003 -66.608917 17.304482 -3.217412 60.551678 -1.927494 -3.587165 -2.968705 -0.019143 0.002717 11.206621 8.316962 -0.258598 19.061079 3.837275 1.389696 -0.505803 0.045654 0.007080 
0.160319 52.632858 77.576874 6.533552 -11.304973 -8.036037 18.949842 -3.815280 8.036579 -17.045513 -5.220538 4.790937 0.000000 0.000000 0.000000 -11.173433 16.582447 -11.956497 1.993417 -2.013218 -0.007815 -64.645493 36.199100 -74.387375 -1.401530 2.424350 52.092728 8.601453 5.149627 2.912341 -2.003164 1.994041 -0.018257 70.609314 -15.695570 -7.093495 7.953953 23.167150 113.994324 -37.667679 1.668951 1.954003 -64.856354 17.361862 -2.871504 52.754631 -2.394304 -3.304880 -2.988258 -0.010951 -0.004482 13.957199 8.266397 -2.845880 21.050709 3.774122 1.525074 -0.487344 0.031741 0.001728 
